<svg width="501" height="56" viewBox="0 0 501 56" fill="none" xmlns="http://www.w3.org/2000/svg">
<g clip-path="url(#clip0_7_38)">
<path d="M375.28 48.5L364.4 44C362.25 43.11 361.22 40.65 362.11 38.49L371.65 15.39C372.54 13.24 375 12.21 377.16 13.1L388.04 17.59C390.19 18.48 391.22 20.94 390.33 23.1L380.79 46.2C379.9 48.36 377.43 49.39 375.28 48.5Z" fill="#D52827"/>
<path d="M369.35 20.97L388.02 28.69" stroke="white" stroke-miterlimit="10"/>
<path d="M379.662 25.221C380.088 24.1899 380.003 23.1762 379.472 22.9569C378.941 22.7376 378.166 23.3957 377.74 24.4269C377.314 25.4581 377.399 26.4718 377.93 26.6911C378.461 26.9103 379.236 26.2522 379.662 25.221Z" fill="#D52827"/>
<path d="M381.84 17.18C381.84 17.18 385.05 4.43 396.98 8.27" stroke="#D52827" stroke-miterlimit="10"/>
<path d="M378.11 26.21L382.6 15.35" stroke="white" stroke-miterlimit="10"/>
<path d="M400.23 0L400.56 3.39L400.89 6.78L400.63 6.8L400.37 6.81L400.3 3.41L400.23 0Z" fill="#D52827"/>
<path d="M407.37 8.68L404.98 8.93L402.6 9.18L402.58 8.91L402.57 8.65L404.97 8.67L407.37 8.68Z" fill="#D52827"/>
<path d="M403.5 16.39L402.03 13.24L400.56 10.09L400.76 10L400.96 9.92L402.23 13.16L403.5 16.39Z" fill="#D52827"/>
<path d="M41.49 40.4L16.18 41.82C19.28 42.73 22.76 43.19 26.6 43.19C33.28 43.19 36.63 42.19 36.88 42.03C36.87 42.03 36.86 42.03 36.82 42.04C38.52 41.6 40.08 41.06 41.49 40.4ZM47.03 23.09C46.98 22.95 46.94 22.82 46.88 22.68V22.67C46.87 22.66 46.87 22.66 46.87 22.65H46.44V22.67H46.17L43.66 22.65H42.84C43.27 22.83 43.66 23.03 44.04 23.25C45.64 24.2 46.44 25.55 46.44 27.3C46.44 29.02 45.64 30.35 44.04 31.3C42.44 32.24 40.32 32.9 37.66 33.29C35.01 33.68 32.11 33.88 28.94 33.88C26.11 33.88 23.69 33.63 21.69 33.15C19.69 32.65 17.34 31.92 16.3 30.94C15.26 29.96 15.57 28.75 15.57 27.32C15.57 25.18 16.68 23.55 18.89 22.48L0.81 22.31C0.27 23.81 0 25.48 0 27.3C0 30.66 1 33.52 3.02 35.89C3.78 36.77 4.61 37.57 5.56 38.29L43.71 36.72C44.62 35.82 45.39 34.84 46 33.77C46.17 33.47 46.33 33.17 46.46 32.87C47.28 31.17 47.69 29.3 47.69 27.29C47.69 25.82 47.47 24.41 47.03 23.09ZM44.41 15.74C42.29 14.32 39.72 13.25 36.71 12.49C33.72 11.73 30.34 11.35 26.59 11.35C22.09 11.35 18.09 11.94 14.59 13.13C11.11 14.3 8.37 16.06 6.36 18.41L48.32 19.36C47.31 18 45.99 16.79 44.41 15.74ZM51.08 39.92C51.2 40.95 51.32 41.76 51.42 42.34H65.55V39.12L51.08 39.92ZM57.23 22.74L46.88 22.67C46.87 22.66 46.87 22.66 46.87 22.65H46.13C46.14 22.65 46.15 22.66 46.16 22.66L46.17 22.67C46.47 22.79 46.77 22.94 47.03 23.09C47.13 23.15 47.22 23.19 47.31 23.25C48.92 24.2 49.73 25.55 49.73 27.3V30.67C49.73 31.43 49.74 32.16 49.75 32.87C49.78 34.19 49.84 35.43 49.93 36.59L64.73 35.98V22.8L57.23 22.74ZM49.73 0V19.4L64.73 19.74V0H49.73Z" fill="#D52827"/>
<path d="M96.74 32.53L91.14 23.51H91.13L75.91 23.39L84.31 35.5L95.09 35.05L98.22 34.92L96.74 32.53ZM102.62 23.6L96.75 32.53L95.09 35.04L98.22 34.91L110.41 34.4L117.95 23.72L102.62 23.6ZM109.92 12.5L104.19 21.2L119.47 21.54L125.86 12.49H109.92V12.5ZM99.75 37.37L93.32 37.74L93.18 37.95L89.49 42.95L80.11 55.63H95.42L108.67 36.86L99.75 37.37ZM99.75 37.37L93.32 37.74L86.15 38.15L89.49 42.95L89.61 43.13L102.55 41.88L99.75 37.37ZM84.3 12.5H68.36L73.91 20.51L89.49 20.86L84.3 12.5Z" fill="#D52827"/>
<path d="M185.43 24.33L168.98 24.2C170.15 25.55 170.74 27.55 170.74 30.2V31.59L185.74 30.96V28.32C185.74 26.88 185.64 25.55 185.43 24.33ZM184.12 20.13C183.04 17.96 181.59 16.25 179.78 15C177.96 13.75 175.91 12.86 173.62 12.34C171.32 11.82 168.95 11.56 166.49 11.56C162.57 11.56 159.19 12.04 156.34 13C153.48 13.96 151.12 15.12 149.25 16.5C147.37 17.87 145.94 19.24 144.96 20.59C144.57 21.13 144.25 21.62 143.99 22.06C143.95 22.13 143.91 22.19 143.88 22.26C143.54 22.85 143.34 23.34 143.25 23.75L143.26 23.98L143.37 26.12C143.57 25.99 143.77 25.85 143.99 25.72C144.87 25.19 145.97 24.64 147.3 24.1C147.37 24.08 147.43 24.04 147.5 24.02H147.51C148.96 23.43 150.58 22.91 152.36 22.46C152.56 22.41 152.76 22.36 152.97 22.31C155.08 21.81 157.25 21.56 159.5 21.56C162.86 21.56 165.41 21.97 167.12 22.79H167.13L185.22 23.21C184.95 22.08 184.58 21.06 184.12 20.13ZM170.74 32.94V43.13H185.74V32.09L170.74 32.94ZM128.98 35.32V43.13H143.98V34.47L128.98 35.32ZM128.98 12.5V21.92L143.87 22.26C143.53 22.85 143.33 23.34 143.24 23.75L143.25 23.98L128.99 23.87V33.34L143.99 32.71V12.5H128.98Z" fill="#D52827"/>
<path d="M238.13 24.81L237.19 24.8V28.52L238.42 28.47L252.19 27.89V24.93L238.13 24.81ZM237.18 12.5V24.56L238.07 24.58L252.19 24.91V12.5H237.18ZM238.4 28.7L237.18 28.77V31.25C237.18 32.04 237.19 32.79 237.2 33.51C237.23 35.01 237.3 36.36 237.4 37.57C237.54 39.37 237.76 41.22 238.06 43.13H252.18V27.92L238.4 28.7ZM237.13 28.52H237.18V27.81C237.18 28.06 237.17 28.29 237.13 28.52ZM237.13 28.52H237.18V27.81C237.18 28.06 237.17 28.29 237.13 28.52ZM237.13 28.52H237.18V27.81C237.18 28.06 237.17 28.29 237.13 28.52ZM237.13 28.52H237.18V27.81C237.18 28.06 237.17 28.29 237.13 28.52ZM237.13 28.52H237.18V27.81C237.18 28.06 237.17 28.29 237.13 28.52ZM237.13 28.52H237.18V27.81C237.18 28.06 237.17 28.29 237.13 28.52ZM237.13 28.52H237.18V27.81C237.18 28.06 237.17 28.29 237.13 28.52ZM237.13 28.52H237.18V27.81C237.18 28.06 237.17 28.29 237.13 28.52ZM237.13 28.52H237.18V27.81C237.18 28.06 237.17 28.29 237.13 28.52ZM237.13 28.52H237.18V27.81C237.18 28.06 237.17 28.29 237.13 28.52ZM237.13 28.52H237.18V27.81C237.18 28.06 237.17 28.29 237.13 28.52ZM237.13 28.52H237.18V27.81C237.18 28.06 237.17 28.29 237.13 28.52ZM237.13 28.52H237.18V27.81C237.18 28.06 237.17 28.29 237.13 28.52ZM237.13 28.52H237.18V27.81C237.18 28.06 237.17 28.29 237.13 28.52ZM237.13 28.52H237.18V27.81C237.18 28.06 237.17 28.29 237.13 28.52ZM237.13 28.52H237.18V27.81C237.18 28.06 237.17 28.29 237.13 28.52ZM237.13 28.52H237.18V27.81C237.18 28.06 237.17 28.29 237.13 28.52ZM237.13 28.52H237.18V27.81C237.18 28.06 237.17 28.29 237.13 28.52ZM237.13 28.52H237.18V27.81C237.18 28.06 237.17 28.29 237.13 28.52ZM237.13 28.52H237.18V27.81C237.18 28.06 237.17 28.29 237.13 28.52ZM207.41 24.57L191.07 24.43C190.85 25.5 190.73 26.62 190.73 27.82C190.73 28.74 190.8 29.62 190.95 30.46L206.68 29.8C206.42 29.19 206.29 28.53 206.29 27.82C206.3 26.55 206.67 25.47 207.41 24.57ZM237.18 28.78H237.09C236.84 30.08 236.07 31.11 234.78 31.89C233.17 32.84 231.05 33.52 228.4 33.92C225.75 34.32 222.85 34.52 219.68 34.52C216.84 34.52 214.43 34.27 212.43 33.77C210.43 33.27 208.91 32.52 207.87 31.52C207.54 31.21 207.26 30.86 207.05 30.5L191.15 31.41C191.62 33.33 192.49 35.05 193.77 36.58C195.79 39 198.55 40.85 202.05 42.12C205.55 43.38 209.55 44.02 214.05 44.02C217.8 44.02 221.18 43.63 224.18 42.86C227.18 42.09 229.74 40.98 231.87 39.55C233.99 38.11 235.62 36.4 236.75 34.42C236.92 34.12 237.07 33.82 237.21 33.52C237.91 32.04 238.31 30.44 238.41 28.71L237.18 28.78ZM237.18 22.01C236.73 21.05 236.15 20.15 235.46 19.29C233.48 16.85 230.67 14.95 227.03 13.6C223.38 12.25 219.06 11.57 214.05 11.57C209.55 11.57 205.55 12.17 202.05 13.38C198.55 14.59 195.78 16.4 193.77 18.82C192.61 20.19 191.79 21.76 191.3 23.51L208.07 23.9H208.08C208.56 23.47 209.13 23.11 209.81 22.79C212.14 21.68 215.44 21.13 219.69 21.13C222.86 21.13 225.76 21.31 228.41 21.69C231.06 22.07 233.18 22.73 234.79 23.69C235.21 23.94 235.58 24.21 235.88 24.53L237.19 24.56L238.08 24.58C237.86 23.68 237.57 22.83 237.18 22.01ZM238.13 24.81L237.19 24.8V27.81C237.19 28.06 237.17 28.29 237.14 28.52H237.19L238.42 28.47C238.43 28.26 238.44 28.04 238.44 27.81C238.43 26.77 238.33 25.77 238.13 24.81ZM237.13 28.52H237.18V27.81C237.18 28.06 237.17 28.29 237.13 28.52ZM237.13 28.52H237.18V27.81C237.18 28.06 237.17 28.29 237.13 28.52ZM237.13 28.52H237.18V27.81C237.18 28.06 237.17 28.29 237.13 28.52ZM237.13 28.52H237.18V27.81C237.18 28.06 237.17 28.29 237.13 28.52ZM237.13 28.52H237.18V27.81C237.18 28.06 237.17 28.29 237.13 28.52ZM237.13 28.52H237.18V27.81C237.18 28.06 237.17 28.29 237.13 28.52ZM237.13 28.52H237.18V27.81C237.18 28.06 237.17 28.29 237.13 28.52ZM237.13 28.52H237.18V27.81C237.18 28.06 237.17 28.29 237.13 28.52ZM237.13 28.52H237.18V27.81C237.18 28.06 237.17 28.29 237.13 28.52ZM237.13 28.52H237.18V27.81C237.18 28.06 237.17 28.29 237.13 28.52ZM237.13 28.52H237.18V27.81C237.18 28.06 237.17 28.29 237.13 28.52ZM237.13 28.52H237.18V27.81C237.18 28.06 237.17 28.29 237.13 28.52ZM237.13 28.52H237.18V27.81C237.18 28.06 237.17 28.29 237.13 28.52ZM237.13 28.52H237.18V27.81C237.18 28.06 237.17 28.29 237.13 28.52ZM237.13 28.52H237.18V27.81C237.18 28.06 237.17 28.29 237.13 28.52ZM237.13 28.52H237.18V27.81C237.18 28.06 237.17 28.29 237.13 28.52ZM237.13 28.52H237.18V27.81C237.18 28.06 237.17 28.29 237.13 28.52ZM237.13 28.52H237.18V27.81C237.18 28.06 237.17 28.29 237.13 28.52ZM237.13 28.52H237.18V27.81C237.18 28.06 237.17 28.29 237.13 28.52ZM237.13 28.52H237.18V27.81C237.18 28.06 237.17 28.29 237.13 28.52Z" fill="#D52827"/>
<path d="M356.61 22.8L339.33 23.16C339.52 23.27 339.64 23.4 339.81 23.53C341.43 24.84 342.25 27.07 342.25 30.19V32.45L357.25 33.26V28.31C357.24 26.26 357.03 24.42 356.61 22.8ZM315.8 23.67L314.77 23.69L314.87 26.13C315.22 25.88 315.62 25.64 316.08 25.39C316.01 24.79 315.92 24.22 315.8 23.67ZM355.62 20.13C354.54 17.96 353.09 16.25 351.27 15C349.46 13.75 347.41 12.86 345.12 12.34C342.82 11.82 340.44 11.56 337.99 11.56C334.41 11.56 331.21 12.04 328.39 13C325.58 13.96 323.18 15.1 321.2 16.44C319.22 17.78 317.69 19.06 316.61 20.32C316.08 20.94 315.66 21.48 315.35 21.94C315.14 22.26 314.97 22.54 314.87 22.78L315.59 22.76L323.89 22.46C324.08 22.41 324.27 22.37 324.46 22.32C326.56 21.82 328.74 21.57 330.99 21.57C333 21.57 334.71 21.72 336.14 22.01L356.12 21.29C355.97 20.89 355.8 20.5 355.62 20.13ZM342.24 33.9V43.13H357.24V34.96L342.24 33.9ZM315.35 21.93C315.14 21.29 314.89 20.69 314.61 20.13C313.53 17.96 312.08 16.25 310.27 15C308.46 13.75 306.4 12.86 304.11 12.34C301.82 11.82 299.44 11.56 296.98 11.56C293.07 11.56 289.68 12.04 286.83 13C283.98 13.96 281.61 15.12 279.74 16.5C277.86 17.87 276.43 19.24 275.46 20.59C275.07 21.13 274.75 21.62 274.48 22.06C274.08 22.73 273.83 23.3 273.73 23.75L273.75 24.26L273.77 24.55L273.85 26.12C274.05 25.99 274.25 25.85 274.47 25.72C275.14 25.31 275.95 24.89 276.89 24.48L274.47 24.53V24.23L277.72 24.12L277.74 24.11C277.76 24.11 277.77 24.1 277.79 24.09C279.46 23.4 281.35 22.8 283.45 22.3C285.56 21.8 287.73 21.55 289.99 21.55C294.04 21.55 296.9 22.15 298.56 23.35H298.58L314.87 22.76L315.59 22.74C315.51 22.48 315.43 22.2 315.35 21.93ZM316.07 25.39C316.01 24.79 315.92 24.22 315.8 23.67L314.77 23.69L299.32 24.02C300.6 25.37 301.24 27.43 301.24 30.2V30.25L316.25 31.06V28.32C316.24 27.28 316.18 26.31 316.07 25.39ZM301.23 31.01V43.13H316.24V32.07L301.23 31.01ZM259.47 28.06V43.13H274.47V29.12L259.47 28.06ZM259.47 12.5V24.78L273.75 24.26L273.77 24.55L259.47 24.85V28L274.47 28.81V12.5H259.47Z" fill="#D52827"/>
<path d="M415.6 21.88V36.03L430.6 36.83V21.88H415.6ZM415.6 3.13V19.4L430.6 18.86V3.13H415.6ZM415.6 38.57V43.13H430.6V39.63L415.6 38.57ZM404.72 12.5V19.79L415.6 19.4L430.6 18.86L441.48 18.47V12.5H404.72Z" fill="#D52827"/>
<path d="M489.3 13.25C485.26 12.13 480.07 11.57 473.74 11.57C467.28 11.57 461.77 12.09 457.24 13.13C452.93 14.12 449.57 15.73 447.19 17.95L495.67 16.2C493.97 14.94 491.84 13.95 489.3 13.25ZM481.96 34.25C479.65 34.75 476.69 35 473.11 35C469.66 35 466.89 34.72 464.83 34.16C462.76 33.59 461.25 32.86 460.26 31.94C459.28 31.02 458.69 30.02 458.48 28.94H500.99C501.06 25.22 500.38 22.18 498.95 19.79L444.85 20.93C443.76 22.89 443.23 25.2 443.23 27.89C443.23 31.93 444.46 35.14 446.92 37.51C447.17 37.76 447.44 37.99 447.71 38.22L493.82 40.71C495.17 40.05 496.32 39.3 497.27 38.46C499.29 36.66 500.49 34.56 500.86 32.14H486.11C485.66 33.05 484.27 33.75 481.96 34.25ZM463.02 22.07C465.33 21.11 468.7 20.63 473.11 20.63C477.61 20.63 480.89 21.07 482.93 21.97C484.97 22.87 486.14 23.86 486.43 24.95H458.92C459.34 23.99 460.71 23.03 463.02 22.07ZM455.05 41.95C455.81 42.17 456.61 42.38 457.45 42.57C462.02 43.57 467.44 44.07 473.74 44.07C476.4 44.07 478.84 43.97 481.07 43.78L455.05 41.95Z" fill="#D52827"/>
<path d="M379.721 25.8466C380.227 24.6215 380.087 23.4009 379.408 23.1205C378.729 22.84 377.768 23.6059 377.262 24.831C376.756 26.0562 376.896 27.2767 377.575 27.5571C378.254 27.8376 379.215 27.0717 379.721 25.8466Z" fill="white"/>
<path d="M375.28 48.5L364.4 44C362.25 43.11 361.22 40.65 362.11 38.49L371.65 15.39C372.54 13.24 375 12.21 377.16 13.1L388.04 17.59C390.19 18.48 391.22 20.94 390.33 23.1L380.79 46.2C379.9 48.36 377.43 49.39 375.28 48.5Z" fill="#D52827"/>
<path d="M369.35 20.97L388.02 28.69" stroke="white" stroke-miterlimit="10"/>
<path d="M379.662 25.221C380.088 24.1899 380.003 23.1762 379.472 22.9569C378.941 22.7376 378.166 23.3957 377.74 24.4269C377.314 25.4581 377.399 26.4718 377.93 26.6911C378.461 26.9103 379.236 26.2522 379.662 25.221Z" fill="#D52827"/>
<path d="M381.84 17.18C381.84 17.18 385.05 4.43 396.98 8.27" stroke="#D52827" stroke-miterlimit="10"/>
<path d="M378.11 26.21L382.6 15.35" stroke="white" stroke-miterlimit="10"/>
<path d="M400.23 0L400.56 3.39L400.89 6.78L400.63 6.8L400.37 6.81L400.3 3.41L400.23 0Z" fill="#D52827"/>
<path d="M407.37 8.68L404.98 8.93L402.6 9.18L402.58 8.91L402.57 8.65L404.97 8.67L407.37 8.68Z" fill="#D52827"/>
<path d="M403.5 16.39L402.03 13.24L400.56 10.09L400.76 10L400.96 9.92L402.23 13.16L403.5 16.39Z" fill="#D52827"/>
<path d="M41.49 40.4L16.18 41.82C19.28 42.73 22.76 43.19 26.6 43.19C33.28 43.19 36.63 42.19 36.88 42.03C36.87 42.03 36.86 42.03 36.82 42.04C38.52 41.6 40.08 41.06 41.49 40.4ZM47.03 23.09C46.98 22.95 46.94 22.82 46.88 22.68V22.67C46.87 22.66 46.87 22.66 46.87 22.65H46.44V22.67H46.17L43.66 22.65H42.84C43.27 22.83 43.66 23.03 44.04 23.25C45.64 24.2 46.44 25.55 46.44 27.3C46.44 29.02 45.64 30.35 44.04 31.3C42.44 32.24 40.32 32.9 37.66 33.29C35.01 33.68 32.11 33.88 28.94 33.88C26.11 33.88 23.69 33.63 21.69 33.15C19.69 32.65 17.34 31.92 16.3 30.94C15.26 29.96 15.57 28.75 15.57 27.32C15.57 25.18 16.68 23.55 18.89 22.48L0.81 22.31C0.27 23.81 0 25.48 0 27.3C0 30.66 1 33.52 3.02 35.89C3.78 36.77 4.61 37.57 5.56 38.29L43.71 36.72C44.62 35.82 45.39 34.84 46 33.77C46.17 33.47 46.33 33.17 46.46 32.87C47.28 31.17 47.69 29.3 47.69 27.29C47.69 25.82 47.47 24.41 47.03 23.09ZM44.41 15.74C42.29 14.32 39.72 13.25 36.71 12.49C33.72 11.73 30.34 11.35 26.59 11.35C22.09 11.35 18.09 11.94 14.59 13.13C11.11 14.3 8.37 16.06 6.36 18.41L48.32 19.36C47.31 18 45.99 16.79 44.41 15.74ZM51.08 39.92C51.2 40.95 51.32 41.76 51.42 42.34H65.55V39.12L51.08 39.92ZM57.23 22.74L46.88 22.67C46.87 22.66 46.87 22.66 46.87 22.65H46.13C46.14 22.65 46.15 22.66 46.16 22.66L46.17 22.67C46.47 22.79 46.77 22.94 47.03 23.09C47.13 23.15 47.22 23.19 47.31 23.25C48.92 24.2 49.73 25.55 49.73 27.3V30.67C49.73 31.43 49.74 32.16 49.75 32.87C49.78 34.19 49.84 35.43 49.93 36.59L64.73 35.98V22.8L57.23 22.74ZM49.73 0V19.4L64.73 19.74V0H49.73Z" fill="#D52827"/>
<path d="M96.74 32.53L91.14 23.51H91.13L75.91 23.39L84.31 35.5L95.09 35.05L98.22 34.92L96.74 32.53ZM102.62 23.6L96.75 32.53L95.09 35.04L98.22 34.91L110.41 34.4L117.95 23.72L102.62 23.6ZM109.92 12.5L104.19 21.2L119.47 21.54L125.86 12.49H109.92V12.5ZM99.75 37.37L93.32 37.74L93.18 37.95L89.49 42.95L80.11 55.63H95.42L108.67 36.86L99.75 37.37ZM99.75 37.37L93.32 37.74L86.15 38.15L89.49 42.95L89.61 43.13L102.55 41.88L99.75 37.37ZM84.3 12.5H68.36L73.91 20.51L89.49 20.86L84.3 12.5Z" fill="#D52827"/>
<path d="M185.43 24.33L168.98 24.2C170.15 25.55 170.74 27.55 170.74 30.2V31.59L185.74 30.96V28.32C185.74 26.88 185.64 25.55 185.43 24.33ZM184.12 20.13C183.04 17.96 181.59 16.25 179.78 15C177.96 13.75 175.91 12.86 173.62 12.34C171.32 11.82 168.95 11.56 166.49 11.56C162.57 11.56 159.19 12.04 156.34 13C153.48 13.96 151.12 15.12 149.25 16.5C147.37 17.87 145.94 19.24 144.96 20.59C144.57 21.13 144.25 21.62 143.99 22.06C143.95 22.13 143.91 22.19 143.88 22.26C143.54 22.85 143.34 23.34 143.25 23.75L143.26 23.98L143.37 26.12C143.57 25.99 143.77 25.85 143.99 25.72C144.87 25.19 145.97 24.64 147.3 24.1C147.37 24.08 147.43 24.04 147.5 24.02H147.51C148.96 23.43 150.58 22.91 152.36 22.46C152.56 22.41 152.76 22.36 152.97 22.31C155.08 21.81 157.25 21.56 159.5 21.56C162.86 21.56 165.41 21.97 167.12 22.79H167.13L185.22 23.21C184.95 22.08 184.58 21.06 184.12 20.13ZM170.74 32.94V43.13H185.74V32.09L170.74 32.94ZM128.98 35.32V43.13H143.98V34.47L128.98 35.32ZM128.98 12.5V21.92L143.87 22.26C143.53 22.85 143.33 23.34 143.24 23.75L143.25 23.98L128.99 23.87V33.34L143.99 32.71V12.5H128.98Z" fill="#D52827"/>
<path d="M238.13 24.81L237.19 24.8V28.52L238.42 28.47L252.19 27.89V24.93L238.13 24.81ZM237.18 12.5V24.56L238.07 24.58L252.19 24.91V12.5H237.18ZM238.4 28.7L237.18 28.77V31.25C237.18 32.04 237.19 32.79 237.2 33.51C237.23 35.01 237.3 36.36 237.4 37.57C237.54 39.37 237.76 41.22 238.06 43.13H252.18V27.92L238.4 28.7ZM237.13 28.52H237.18V27.81C237.18 28.06 237.17 28.29 237.13 28.52ZM237.13 28.52H237.18V27.81C237.18 28.06 237.17 28.29 237.13 28.52ZM237.13 28.52H237.18V27.81C237.18 28.06 237.17 28.29 237.13 28.52ZM237.13 28.52H237.18V27.81C237.18 28.06 237.17 28.29 237.13 28.52ZM237.13 28.52H237.18V27.81C237.18 28.06 237.17 28.29 237.13 28.52ZM237.13 28.52H237.18V27.81C237.18 28.06 237.17 28.29 237.13 28.52ZM237.13 28.52H237.18V27.81C237.18 28.06 237.17 28.29 237.13 28.52ZM237.13 28.52H237.18V27.81C237.18 28.06 237.17 28.29 237.13 28.52ZM237.13 28.52H237.18V27.81C237.18 28.06 237.17 28.29 237.13 28.52ZM237.13 28.52H237.18V27.81C237.18 28.06 237.17 28.29 237.13 28.52ZM237.13 28.52H237.18V27.81C237.18 28.06 237.17 28.29 237.13 28.52ZM237.13 28.52H237.18V27.81C237.18 28.06 237.17 28.29 237.13 28.52ZM237.13 28.52H237.18V27.81C237.18 28.06 237.17 28.29 237.13 28.52ZM237.13 28.52H237.18V27.81C237.18 28.06 237.17 28.29 237.13 28.52ZM237.13 28.52H237.18V27.81C237.18 28.06 237.17 28.29 237.13 28.52ZM237.13 28.52H237.18V27.81C237.18 28.06 237.17 28.29 237.13 28.52ZM237.13 28.52H237.18V27.81C237.18 28.06 237.17 28.29 237.13 28.52ZM237.13 28.52H237.18V27.81C237.18 28.06 237.17 28.29 237.13 28.52ZM237.13 28.52H237.18V27.81C237.18 28.06 237.17 28.29 237.13 28.52ZM237.13 28.52H237.18V27.81C237.18 28.06 237.17 28.29 237.13 28.52ZM207.41 24.57L191.07 24.43C190.85 25.5 190.73 26.62 190.73 27.82C190.73 28.74 190.8 29.62 190.95 30.46L206.68 29.8C206.42 29.19 206.29 28.53 206.29 27.82C206.3 26.55 206.67 25.47 207.41 24.57ZM237.18 28.78H237.09C236.84 30.08 236.07 31.11 234.78 31.89C233.17 32.84 231.05 33.52 228.4 33.92C225.75 34.32 222.85 34.52 219.68 34.52C216.84 34.52 214.43 34.27 212.43 33.77C210.43 33.27 208.91 32.52 207.87 31.52C207.54 31.21 207.26 30.86 207.05 30.5L191.15 31.41C191.62 33.33 192.49 35.05 193.77 36.58C195.79 39 198.55 40.85 202.05 42.12C205.55 43.38 209.55 44.02 214.05 44.02C217.8 44.02 221.18 43.63 224.18 42.86C227.18 42.09 229.74 40.98 231.87 39.55C233.99 38.11 235.62 36.4 236.75 34.42C236.92 34.12 237.07 33.82 237.21 33.52C237.91 32.04 238.31 30.44 238.41 28.71L237.18 28.78ZM237.18 22.01C236.73 21.05 236.15 20.15 235.46 19.29C233.48 16.85 230.67 14.95 227.03 13.6C223.38 12.25 219.06 11.57 214.05 11.57C209.55 11.57 205.55 12.17 202.05 13.38C198.55 14.59 195.78 16.4 193.77 18.82C192.61 20.19 191.79 21.76 191.3 23.51L208.07 23.9H208.08C208.56 23.47 209.13 23.11 209.81 22.79C212.14 21.68 215.44 21.13 219.69 21.13C222.86 21.13 225.76 21.31 228.41 21.69C231.06 22.07 233.18 22.73 234.79 23.69C235.21 23.94 235.58 24.21 235.88 24.53L237.19 24.56L238.08 24.58C237.86 23.68 237.57 22.83 237.18 22.01ZM238.13 24.81L237.19 24.8V27.81C237.19 28.06 237.17 28.29 237.14 28.52H237.19L238.42 28.47C238.43 28.26 238.44 28.04 238.44 27.81C238.43 26.77 238.33 25.77 238.13 24.81ZM237.13 28.52H237.18V27.81C237.18 28.06 237.17 28.29 237.13 28.52ZM237.13 28.52H237.18V27.81C237.18 28.06 237.17 28.29 237.13 28.52ZM237.13 28.52H237.18V27.81C237.18 28.06 237.17 28.29 237.13 28.52ZM237.13 28.52H237.18V27.81C237.18 28.06 237.17 28.29 237.13 28.52ZM237.13 28.52H237.18V27.81C237.18 28.06 237.17 28.29 237.13 28.52ZM237.13 28.52H237.18V27.81C237.18 28.06 237.17 28.29 237.13 28.52ZM237.13 28.52H237.18V27.81C237.18 28.06 237.17 28.29 237.13 28.52ZM237.13 28.52H237.18V27.81C237.18 28.06 237.17 28.29 237.13 28.52ZM237.13 28.52H237.18V27.81C237.18 28.06 237.17 28.29 237.13 28.52ZM237.13 28.52H237.18V27.81C237.18 28.06 237.17 28.29 237.13 28.52ZM237.13 28.52H237.18V27.81C237.18 28.06 237.17 28.29 237.13 28.52ZM237.13 28.52H237.18V27.81C237.18 28.06 237.17 28.29 237.13 28.52ZM237.13 28.52H237.18V27.81C237.18 28.06 237.17 28.29 237.13 28.52ZM237.13 28.52H237.18V27.81C237.18 28.06 237.17 28.29 237.13 28.52ZM237.13 28.52H237.18V27.81C237.18 28.06 237.17 28.29 237.13 28.52ZM237.13 28.52H237.18V27.81C237.18 28.06 237.17 28.29 237.13 28.52ZM237.13 28.52H237.18V27.81C237.18 28.06 237.17 28.29 237.13 28.52ZM237.13 28.52H237.18V27.81C237.18 28.06 237.17 28.29 237.13 28.52ZM237.13 28.52H237.18V27.81C237.18 28.06 237.17 28.29 237.13 28.52ZM237.13 28.52H237.18V27.81C237.18 28.06 237.17 28.29 237.13 28.52Z" fill="#D52827"/>
<path d="M356.61 22.8L339.33 23.16C339.52 23.27 339.64 23.4 339.81 23.53C341.43 24.84 342.25 27.07 342.25 30.19V32.45L357.25 33.26V28.31C357.24 26.26 357.03 24.42 356.61 22.8ZM315.8 23.67L314.77 23.69L314.87 26.13C315.22 25.88 315.62 25.64 316.08 25.39C316.01 24.79 315.92 24.22 315.8 23.67ZM355.62 20.13C354.54 17.96 353.09 16.25 351.27 15C349.46 13.75 347.41 12.86 345.12 12.34C342.82 11.82 340.44 11.56 337.99 11.56C334.41 11.56 331.21 12.04 328.39 13C325.58 13.96 323.18 15.1 321.2 16.44C319.22 17.78 317.69 19.06 316.61 20.32C316.08 20.94 315.66 21.48 315.35 21.94C315.14 22.26 314.97 22.54 314.87 22.78L315.59 22.76L323.89 22.46C324.08 22.41 324.27 22.37 324.46 22.32C326.56 21.82 328.74 21.57 330.99 21.57C333 21.57 334.71 21.72 336.14 22.01L356.12 21.29C355.97 20.89 355.8 20.5 355.62 20.13ZM342.24 33.9V43.13H357.24V34.96L342.24 33.9ZM315.35 21.93C315.14 21.29 314.89 20.69 314.61 20.13C313.53 17.96 312.08 16.25 310.27 15C308.46 13.75 306.4 12.86 304.11 12.34C301.82 11.82 299.44 11.56 296.98 11.56C293.07 11.56 289.68 12.04 286.83 13C283.98 13.96 281.61 15.12 279.74 16.5C277.86 17.87 276.43 19.24 275.46 20.59C275.07 21.13 274.75 21.62 274.48 22.06C274.08 22.73 273.83 23.3 273.73 23.75L273.75 24.26L273.77 24.55L273.85 26.12C274.05 25.99 274.25 25.85 274.47 25.72C275.14 25.31 275.95 24.89 276.89 24.48L274.47 24.53V24.23L277.72 24.12L277.74 24.11C277.76 24.11 277.77 24.1 277.79 24.09C279.46 23.4 281.35 22.8 283.45 22.3C285.56 21.8 287.73 21.55 289.99 21.55C294.04 21.55 296.9 22.15 298.56 23.35H298.58L314.87 22.76L315.59 22.74C315.51 22.48 315.43 22.2 315.35 21.93ZM316.07 25.39C316.01 24.79 315.92 24.22 315.8 23.67L314.77 23.69L299.32 24.02C300.6 25.37 301.24 27.43 301.24 30.2V30.25L316.25 31.06V28.32C316.24 27.28 316.18 26.31 316.07 25.39ZM301.23 31.01V43.13H316.24V32.07L301.23 31.01ZM259.47 28.06V43.13H274.47V29.12L259.47 28.06ZM259.47 12.5V24.78L273.75 24.26L273.77 24.55L259.47 24.85V28L274.47 28.81V12.5H259.47Z" fill="#D52827"/>
<path d="M415.6 21.88V36.03L430.6 36.83V21.88H415.6ZM415.6 3.13V19.4L430.6 18.86V3.13H415.6ZM415.6 38.57V43.13H430.6V39.63L415.6 38.57ZM404.72 12.5V19.79L415.6 19.4L430.6 18.86L441.48 18.47V12.5H404.72Z" fill="#D52827"/>
<path d="M489.3 13.25C485.26 12.13 480.07 11.57 473.74 11.57C467.28 11.57 461.77 12.09 457.24 13.13C452.93 14.12 449.57 15.73 447.19 17.95L495.67 16.2C493.97 14.94 491.84 13.95 489.3 13.25ZM481.96 34.25C479.65 34.75 476.69 35 473.11 35C469.66 35 466.89 34.72 464.83 34.16C462.76 33.59 461.25 32.86 460.26 31.94C459.28 31.02 458.69 30.02 458.48 28.94H500.99C501.06 25.22 500.38 22.18 498.95 19.79L444.85 20.93C443.76 22.89 443.23 25.2 443.23 27.89C443.23 31.93 444.46 35.14 446.92 37.51C447.17 37.76 447.44 37.99 447.71 38.22L493.82 40.71C495.17 40.05 496.32 39.3 497.27 38.46C499.29 36.66 500.49 34.56 500.86 32.14H486.11C485.66 33.05 484.27 33.75 481.96 34.25ZM463.02 22.07C465.33 21.11 468.7 20.63 473.11 20.63C477.61 20.63 480.89 21.07 482.93 21.97C484.97 22.87 486.14 23.86 486.43 24.95H458.92C459.34 23.99 460.71 23.03 463.02 22.07ZM455.05 41.95C455.81 42.17 456.61 42.38 457.45 42.57C462.02 43.57 467.44 44.07 473.74 44.07C476.4 44.07 478.84 43.97 481.07 43.78L455.05 41.95Z" fill="#D52827"/>
<path d="M379.721 25.8466C380.227 24.6215 380.087 23.4009 379.408 23.1205C378.729 22.84 377.768 23.6059 377.262 24.831C376.756 26.0562 376.896 27.2767 377.575 27.5571C378.254 27.8376 379.215 27.0717 379.721 25.8466Z" fill="white"/>
<path d="M375.28 48.5L364.4 44C362.25 43.11 361.22 40.65 362.11 38.49L371.65 15.39C372.54 13.24 375 12.21 377.16 13.1L388.04 17.59C390.19 18.48 391.22 20.94 390.33 23.1L380.79 46.2C379.9 48.36 377.43 49.39 375.28 48.5Z" fill="#D52827"/>
<path d="M369.35 20.97L388.02 28.69" stroke="white" stroke-miterlimit="10"/>
<path d="M379.662 25.221C380.088 24.1899 380.003 23.1762 379.472 22.9569C378.941 22.7376 378.166 23.3957 377.74 24.4269C377.314 25.4581 377.399 26.4718 377.93 26.6911C378.461 26.9103 379.236 26.2522 379.662 25.221Z" fill="#D52827"/>
<path d="M381.84 17.18C381.84 17.18 385.05 4.43 396.98 8.27" stroke="#D52827" stroke-miterlimit="10"/>
<path d="M378.11 26.21L382.6 15.35" stroke="white" stroke-miterlimit="10"/>
<path d="M400.23 0L400.56 3.39L400.89 6.78L400.63 6.8L400.37 6.81L400.3 3.41L400.23 0Z" fill="#D52827"/>
<path d="M407.37 8.68L404.98 8.93L402.6 9.18L402.58 8.91L402.57 8.65L404.97 8.67L407.37 8.68Z" fill="#D52827"/>
<path d="M403.5 16.39L402.03 13.24L400.56 10.09L400.76 10L400.96 9.92L402.23 13.16L403.5 16.39Z" fill="#D52827"/>
<path d="M41.49 40.4L16.18 41.82C19.28 42.73 22.76 43.19 26.6 43.19C33.28 43.19 36.63 42.19 36.88 42.03C36.87 42.03 36.86 42.03 36.82 42.04C38.52 41.6 40.08 41.06 41.49 40.4ZM47.03 23.09C46.98 22.95 46.94 22.82 46.88 22.68V22.67C46.87 22.66 46.87 22.66 46.87 22.65H46.44V22.67H46.17L43.66 22.65H42.84C43.27 22.83 43.66 23.03 44.04 23.25C45.64 24.2 46.44 25.55 46.44 27.3C46.44 29.02 45.64 30.35 44.04 31.3C42.44 32.24 40.32 32.9 37.66 33.29C35.01 33.68 32.11 33.88 28.94 33.88C26.11 33.88 23.69 33.63 21.69 33.15C19.69 32.65 17.34 31.92 16.3 30.94C15.26 29.96 15.57 28.75 15.57 27.32C15.57 25.18 16.68 23.55 18.89 22.48L0.81 22.31C0.27 23.81 0 25.48 0 27.3C0 30.66 1 33.52 3.02 35.89C3.78 36.77 4.61 37.57 5.56 38.29L43.71 36.72C44.62 35.82 45.39 34.84 46 33.77C46.17 33.47 46.33 33.17 46.46 32.87C47.28 31.17 47.69 29.3 47.69 27.29C47.69 25.82 47.47 24.41 47.03 23.09ZM44.41 15.74C42.29 14.32 39.72 13.25 36.71 12.49C33.72 11.73 30.34 11.35 26.59 11.35C22.09 11.35 18.09 11.94 14.59 13.13C11.11 14.3 8.37 16.06 6.36 18.41L48.32 19.36C47.31 18 45.99 16.79 44.41 15.74ZM51.08 39.92C51.2 40.95 51.32 41.76 51.42 42.34H65.55V39.12L51.08 39.92ZM57.23 22.74L46.88 22.67C46.87 22.66 46.87 22.66 46.87 22.65H46.13C46.14 22.65 46.15 22.66 46.16 22.66L46.17 22.67C46.47 22.79 46.77 22.94 47.03 23.09C47.13 23.15 47.22 23.19 47.31 23.25C48.92 24.2 49.73 25.55 49.73 27.3V30.67C49.73 31.43 49.74 32.16 49.75 32.87C49.78 34.19 49.84 35.43 49.93 36.59L64.73 35.98V22.8L57.23 22.74ZM49.73 0V19.4L64.73 19.74V0H49.73Z" fill="#D52827"/>
<path d="M96.74 32.53L91.14 23.51H91.13L75.91 23.39L84.31 35.5L95.09 35.05L98.22 34.92L96.74 32.53ZM102.62 23.6L96.75 32.53L95.09 35.04L98.22 34.91L110.41 34.4L117.95 23.72L102.62 23.6ZM109.92 12.5L104.19 21.2L119.47 21.54L125.86 12.49H109.92V12.5ZM99.75 37.37L93.32 37.74L93.18 37.95L89.49 42.95L80.11 55.63H95.42L108.67 36.86L99.75 37.37ZM99.75 37.37L93.32 37.74L86.15 38.15L89.49 42.95L89.61 43.13L102.55 41.88L99.75 37.37ZM84.3 12.5H68.36L73.91 20.51L89.49 20.86L84.3 12.5Z" fill="#D52827"/>
<path d="M185.43 24.33L168.98 24.2C170.15 25.55 170.74 27.55 170.74 30.2V31.59L185.74 30.96V28.32C185.74 26.88 185.64 25.55 185.43 24.33ZM184.12 20.13C183.04 17.96 181.59 16.25 179.78 15C177.96 13.75 175.91 12.86 173.62 12.34C171.32 11.82 168.95 11.56 166.49 11.56C162.57 11.56 159.19 12.04 156.34 13C153.48 13.96 151.12 15.12 149.25 16.5C147.37 17.87 145.94 19.24 144.96 20.59C144.57 21.13 144.25 21.62 143.99 22.06C143.95 22.13 143.91 22.19 143.88 22.26C143.54 22.85 143.34 23.34 143.25 23.75L143.26 23.98L143.37 26.12C143.57 25.99 143.77 25.85 143.99 25.72C144.87 25.19 145.97 24.64 147.3 24.1C147.37 24.08 147.43 24.04 147.5 24.02H147.51C148.96 23.43 150.58 22.91 152.36 22.46C152.56 22.41 152.76 22.36 152.97 22.31C155.08 21.81 157.25 21.56 159.5 21.56C162.86 21.56 165.41 21.97 167.12 22.79H167.13L185.22 23.21C184.95 22.08 184.58 21.06 184.12 20.13ZM170.74 32.94V43.13H185.74V32.09L170.74 32.94ZM128.98 35.32V43.13H143.98V34.47L128.98 35.32ZM128.98 12.5V21.92L143.87 22.26C143.53 22.85 143.33 23.34 143.24 23.75L143.25 23.98L128.99 23.87V33.34L143.99 32.71V12.5H128.98Z" fill="#D52827"/>
<path d="M238.13 24.81L237.19 24.8V28.52L238.42 28.47L252.19 27.89V24.93L238.13 24.81ZM237.18 12.5V24.56L238.07 24.58L252.19 24.91V12.5H237.18ZM238.4 28.7L237.18 28.77V31.25C237.18 32.04 237.19 32.79 237.2 33.51C237.23 35.01 237.3 36.36 237.4 37.57C237.54 39.37 237.76 41.22 238.06 43.13H252.18V27.92L238.4 28.7ZM237.13 28.52H237.18V27.81C237.18 28.06 237.17 28.29 237.13 28.52ZM237.13 28.52H237.18V27.81C237.18 28.06 237.17 28.29 237.13 28.52ZM237.13 28.52H237.18V27.81C237.18 28.06 237.17 28.29 237.13 28.52ZM237.13 28.52H237.18V27.81C237.18 28.06 237.17 28.29 237.13 28.52ZM237.13 28.52H237.18V27.81C237.18 28.06 237.17 28.29 237.13 28.52ZM237.13 28.52H237.18V27.81C237.18 28.06 237.17 28.29 237.13 28.52ZM237.13 28.52H237.18V27.81C237.18 28.06 237.17 28.29 237.13 28.52ZM237.13 28.52H237.18V27.81C237.18 28.06 237.17 28.29 237.13 28.52ZM237.13 28.52H237.18V27.81C237.18 28.06 237.17 28.29 237.13 28.52ZM237.13 28.52H237.18V27.81C237.18 28.06 237.17 28.29 237.13 28.52ZM237.13 28.52H237.18V27.81C237.18 28.06 237.17 28.29 237.13 28.52ZM237.13 28.52H237.18V27.81C237.18 28.06 237.17 28.29 237.13 28.52ZM237.13 28.52H237.18V27.81C237.18 28.06 237.17 28.29 237.13 28.52ZM237.13 28.52H237.18V27.81C237.18 28.06 237.17 28.29 237.13 28.52ZM237.13 28.52H237.18V27.81C237.18 28.06 237.17 28.29 237.13 28.52ZM237.13 28.52H237.18V27.81C237.18 28.06 237.17 28.29 237.13 28.52ZM237.13 28.52H237.18V27.81C237.18 28.06 237.17 28.29 237.13 28.52ZM237.13 28.52H237.18V27.81C237.18 28.06 237.17 28.29 237.13 28.52ZM237.13 28.52H237.18V27.81C237.18 28.06 237.17 28.29 237.13 28.52ZM237.13 28.52H237.18V27.81C237.18 28.06 237.17 28.29 237.13 28.52ZM207.41 24.57L191.07 24.43C190.85 25.5 190.73 26.62 190.73 27.82C190.73 28.74 190.8 29.62 190.95 30.46L206.68 29.8C206.42 29.19 206.29 28.53 206.29 27.82C206.3 26.55 206.67 25.47 207.41 24.57ZM237.18 28.78H237.09C236.84 30.08 236.07 31.11 234.78 31.89C233.17 32.84 231.05 33.52 228.4 33.92C225.75 34.32 222.85 34.52 219.68 34.52C216.84 34.52 214.43 34.27 212.43 33.77C210.43 33.27 208.91 32.52 207.87 31.52C207.54 31.21 207.26 30.86 207.05 30.5L191.15 31.41C191.62 33.33 192.49 35.05 193.77 36.58C195.79 39 198.55 40.85 202.05 42.12C205.55 43.38 209.55 44.02 214.05 44.02C217.8 44.02 221.18 43.63 224.18 42.86C227.18 42.09 229.74 40.98 231.87 39.55C233.99 38.11 235.62 36.4 236.75 34.42C236.92 34.12 237.07 33.82 237.21 33.52C237.91 32.04 238.31 30.44 238.41 28.71L237.18 28.78ZM237.18 22.01C236.73 21.05 236.15 20.15 235.46 19.29C233.48 16.85 230.67 14.95 227.03 13.6C223.38 12.25 219.06 11.57 214.05 11.57C209.55 11.57 205.55 12.17 202.05 13.38C198.55 14.59 195.78 16.4 193.77 18.82C192.61 20.19 191.79 21.76 191.3 23.51L208.07 23.9H208.08C208.56 23.47 209.13 23.11 209.81 22.79C212.14 21.68 215.44 21.13 219.69 21.13C222.86 21.13 225.76 21.31 228.41 21.69C231.06 22.07 233.18 22.73 234.79 23.69C235.21 23.94 235.58 24.21 235.88 24.53L237.19 24.56L238.08 24.58C237.86 23.68 237.57 22.83 237.18 22.01ZM238.13 24.81L237.19 24.8V27.81C237.19 28.06 237.17 28.29 237.14 28.52H237.19L238.42 28.47C238.43 28.26 238.44 28.04 238.44 27.81C238.43 26.77 238.33 25.77 238.13 24.81ZM237.13 28.52H237.18V27.81C237.18 28.06 237.17 28.29 237.13 28.52ZM237.13 28.52H237.18V27.81C237.18 28.06 237.17 28.29 237.13 28.52ZM237.13 28.52H237.18V27.81C237.18 28.06 237.17 28.29 237.13 28.52ZM237.13 28.52H237.18V27.81C237.18 28.06 237.17 28.29 237.13 28.52ZM237.13 28.52H237.18V27.81C237.18 28.06 237.17 28.29 237.13 28.52ZM237.13 28.52H237.18V27.81C237.18 28.06 237.17 28.29 237.13 28.52ZM237.13 28.52H237.18V27.81C237.18 28.06 237.17 28.29 237.13 28.52ZM237.13 28.52H237.18V27.81C237.18 28.06 237.17 28.29 237.13 28.52ZM237.13 28.52H237.18V27.81C237.18 28.06 237.17 28.29 237.13 28.52ZM237.13 28.52H237.18V27.81C237.18 28.06 237.17 28.29 237.13 28.52ZM237.13 28.52H237.18V27.81C237.18 28.06 237.17 28.29 237.13 28.52ZM237.13 28.52H237.18V27.81C237.18 28.06 237.17 28.29 237.13 28.52ZM237.13 28.52H237.18V27.81C237.18 28.06 237.17 28.29 237.13 28.52ZM237.13 28.52H237.18V27.81C237.18 28.06 237.17 28.29 237.13 28.52ZM237.13 28.52H237.18V27.81C237.18 28.06 237.17 28.29 237.13 28.52ZM237.13 28.52H237.18V27.81C237.18 28.06 237.17 28.29 237.13 28.52ZM237.13 28.52H237.18V27.81C237.18 28.06 237.17 28.29 237.13 28.52ZM237.13 28.52H237.18V27.81C237.18 28.06 237.17 28.29 237.13 28.52ZM237.13 28.52H237.18V27.81C237.18 28.06 237.17 28.29 237.13 28.52ZM237.13 28.52H237.18V27.81C237.18 28.06 237.17 28.29 237.13 28.52Z" fill="#D52827"/>
<path d="M356.61 22.8L339.33 23.16C339.52 23.27 339.64 23.4 339.81 23.53C341.43 24.84 342.25 27.07 342.25 30.19V32.45L357.25 33.26V28.31C357.24 26.26 357.03 24.42 356.61 22.8ZM315.8 23.67L314.77 23.69L314.87 26.13C315.22 25.88 315.62 25.64 316.08 25.39C316.01 24.79 315.92 24.22 315.8 23.67ZM355.62 20.13C354.54 17.96 353.09 16.25 351.27 15C349.46 13.75 347.41 12.86 345.12 12.34C342.82 11.82 340.44 11.56 337.99 11.56C334.41 11.56 331.21 12.04 328.39 13C325.58 13.96 323.18 15.1 321.2 16.44C319.22 17.78 317.69 19.06 316.61 20.32C316.08 20.94 315.66 21.48 315.35 21.94C315.14 22.26 314.97 22.54 314.87 22.78L315.59 22.76L323.89 22.46C324.08 22.41 324.27 22.37 324.46 22.32C326.56 21.82 328.74 21.57 330.99 21.57C333 21.57 334.71 21.72 336.14 22.01L356.12 21.29C355.97 20.89 355.8 20.5 355.62 20.13ZM342.24 33.9V43.13H357.24V34.96L342.24 33.9ZM315.35 21.93C315.14 21.29 314.89 20.69 314.61 20.13C313.53 17.96 312.08 16.25 310.27 15C308.46 13.75 306.4 12.86 304.11 12.34C301.82 11.82 299.44 11.56 296.98 11.56C293.07 11.56 289.68 12.04 286.83 13C283.98 13.96 281.61 15.12 279.74 16.5C277.86 17.87 276.43 19.24 275.46 20.59C275.07 21.13 274.75 21.62 274.48 22.06C274.08 22.73 273.83 23.3 273.73 23.75L273.75 24.26L273.77 24.55L273.85 26.12C274.05 25.99 274.25 25.85 274.47 25.72C275.14 25.31 275.95 24.89 276.89 24.48L274.47 24.53V24.23L277.72 24.12L277.74 24.11C277.76 24.11 277.77 24.1 277.79 24.09C279.46 23.4 281.35 22.8 283.45 22.3C285.56 21.8 287.73 21.55 289.99 21.55C294.04 21.55 296.9 22.15 298.56 23.35H298.58L314.87 22.76L315.59 22.74C315.51 22.48 315.43 22.2 315.35 21.93ZM316.07 25.39C316.01 24.79 315.92 24.22 315.8 23.67L314.77 23.69L299.32 24.02C300.6 25.37 301.24 27.43 301.24 30.2V30.25L316.25 31.06V28.32C316.24 27.28 316.18 26.31 316.07 25.39ZM301.23 31.01V43.13H316.24V32.07L301.23 31.01ZM259.47 28.06V43.13H274.47V29.12L259.47 28.06ZM259.47 12.5V24.78L273.75 24.26L273.77 24.55L259.47 24.85V28L274.47 28.81V12.5H259.47Z" fill="#D52827"/>
<path d="M415.6 21.88V36.03L430.6 36.83V21.88H415.6ZM415.6 3.13V19.4L430.6 18.86V3.13H415.6ZM415.6 38.57V43.13H430.6V39.63L415.6 38.57ZM404.72 12.5V19.79L415.6 19.4L430.6 18.86L441.48 18.47V12.5H404.72Z" fill="#D52827"/>
<path d="M489.3 13.25C485.26 12.13 480.07 11.57 473.74 11.57C467.28 11.57 461.77 12.09 457.24 13.13C452.93 14.12 449.57 15.73 447.19 17.95L495.67 16.2C493.97 14.94 491.84 13.95 489.3 13.25ZM481.96 34.25C479.65 34.75 476.69 35 473.11 35C469.66 35 466.89 34.72 464.83 34.16C462.76 33.59 461.25 32.86 460.26 31.94C459.28 31.02 458.69 30.02 458.48 28.94H500.99C501.06 25.22 500.38 22.18 498.95 19.79L444.85 20.93C443.76 22.89 443.23 25.2 443.23 27.89C443.23 31.93 444.46 35.14 446.92 37.51C447.17 37.76 447.44 37.99 447.71 38.22L493.82 40.71C495.17 40.05 496.32 39.3 497.27 38.46C499.29 36.66 500.49 34.56 500.86 32.14H486.11C485.66 33.05 484.27 33.75 481.96 34.25ZM463.02 22.07C465.33 21.11 468.7 20.63 473.11 20.63C477.61 20.63 480.89 21.07 482.93 21.97C484.97 22.87 486.14 23.86 486.43 24.95H458.92C459.34 23.99 460.71 23.03 463.02 22.07ZM455.05 41.95C455.81 42.17 456.61 42.38 457.45 42.57C462.02 43.57 467.44 44.07 473.74 44.07C476.4 44.07 478.84 43.97 481.07 43.78L455.05 41.95Z" fill="#D52827"/>
<path d="M379.721 25.8466C380.227 24.6215 380.087 23.4009 379.408 23.1205C378.729 22.84 377.768 23.6059 377.262 24.831C376.756 26.0562 376.896 27.2767 377.575 27.5571C378.254 27.8376 379.215 27.0717 379.721 25.8466Z" fill="white"/>
</g>
<defs>
<clipPath id="clip0_7_38">
<rect width="501" height="55.63" fill="white"/>
</clipPath>
</defs>
</svg>
